<mxfile host="65bd71144e">
    <diagram id="ewuG9kTc1EjuDXKSrMaQ" name="Page-1">
        <mxGraphModel dx="8400" dy="1106" grid="1" gridSize="10" guides="1" tooltips="1" connect="1" arrows="1" fold="1" page="1" pageScale="1" pageWidth="850" pageHeight="1100" math="0" shadow="0">
            <root>
                <mxCell id="0"/>
                <mxCell id="1" parent="0"/>
                <mxCell id="4" value="" style="edgeStyle=none;html=1;" parent="1" source="8" target="9" edge="1">
                    <mxGeometry relative="1" as="geometry"/>
                </mxCell>
                <mxCell id="5" value="" style="edgeStyle=orthogonalEdgeStyle;html=1;" parent="1" source="8" target="9" edge="1">
                    <mxGeometry relative="1" as="geometry"/>
                </mxCell>
                <mxCell id="6" value="" style="edgeStyle=orthogonalEdgeStyle;html=1;" parent="1" target="10" edge="1">
                    <mxGeometry relative="1" as="geometry">
                        <mxPoint x="425" y="130" as="sourcePoint"/>
                        <Array as="points">
                            <mxPoint x="425" y="190"/>
                            <mxPoint x="265" y="190"/>
                        </Array>
                    </mxGeometry>
                </mxCell>
                <mxCell id="7" value="" style="edgeStyle=orthogonalEdgeStyle;html=1;" parent="1" target="11" edge="1">
                    <mxGeometry relative="1" as="geometry">
                        <mxPoint x="425" y="130" as="sourcePoint"/>
                        <Array as="points">
                            <mxPoint x="425" y="190"/>
                            <mxPoint x="585" y="190"/>
                        </Array>
                    </mxGeometry>
                </mxCell>
                <mxCell id="8" value="GF" style="shape=document;whiteSpace=wrap;html=1;boundedLbl=1;fillColor=#1ba1e2;fontColor=#ffffff;strokeColor=#006EAF;" parent="1" vertex="1">
                    <mxGeometry x="365" y="50" width="120" height="80" as="geometry"/>
                </mxCell>
                <mxCell id="9" value="Init" style="shape=parallelogram;perimeter=parallelogramPerimeter;whiteSpace=wrap;html=1;fixedSize=1;fillColor=#1ba1e2;strokeColor=#006EAF;fontColor=#ffffff;" parent="1" vertex="1">
                    <mxGeometry x="365" y="220" width="120" height="60" as="geometry"/>
                </mxCell>
                <mxCell id="10" value="Setup" style="shape=parallelogram;perimeter=parallelogramPerimeter;whiteSpace=wrap;html=1;fixedSize=1;fillColor=#1ba1e2;strokeColor=#006EAF;fontColor=#ffffff;" parent="1" vertex="1">
                    <mxGeometry x="205" y="220" width="120" height="60" as="geometry"/>
                </mxCell>
                <mxCell id="13" value="" style="edgeStyle=orthogonalEdgeStyle;html=1;" parent="1" source="11" target="12" edge="1">
                    <mxGeometry relative="1" as="geometry"/>
                </mxCell>
                <mxCell id="19" style="edgeStyle=orthogonalEdgeStyle;html=1;exitX=0.5;exitY=1;exitDx=0;exitDy=0;entryX=0.5;entryY=0;entryDx=0;entryDy=0;" parent="1" source="11" target="18" edge="1">
                    <mxGeometry relative="1" as="geometry"/>
                </mxCell>
                <mxCell id="11" value="Run" style="shape=parallelogram;perimeter=parallelogramPerimeter;whiteSpace=wrap;html=1;fixedSize=1;fillColor=#1ba1e2;strokeColor=#006EAF;fontColor=#ffffff;" parent="1" vertex="1">
                    <mxGeometry x="525" y="220" width="120" height="60" as="geometry"/>
                </mxCell>
                <mxCell id="15" value="" style="edgeStyle=orthogonalEdgeStyle;html=1;exitX=0.5;exitY=1;exitDx=0;exitDy=0;entryX=0.5;entryY=0;entryDx=0;entryDy=0;" parent="1" source="11" target="14" edge="1">
                    <mxGeometry relative="1" as="geometry"/>
                </mxCell>
                <mxCell id="17" value="" style="edgeStyle=orthogonalEdgeStyle;html=1;exitX=0.5;exitY=1;exitDx=0;exitDy=0;entryX=0.5;entryY=0;entryDx=0;entryDy=0;" parent="1" source="11" target="16" edge="1">
                    <mxGeometry relative="1" as="geometry"/>
                </mxCell>
                <mxCell id="12" value="ICE_FRACTION" style="rounded=1;whiteSpace=wrap;html=1;fillColor=#FFFF66;strokeColor=#006EAF;fontColor=#000000;" parent="1" vertex="1">
                    <mxGeometry x="525" y="360" width="120" height="60" as="geometry"/>
                </mxCell>
                <mxCell id="29" value="" style="edgeStyle=orthogonalEdgeStyle;html=1;" parent="1" source="14" target="28" edge="1">
                    <mxGeometry relative="1" as="geometry"/>
                </mxCell>
                <mxCell id="14" value="GEOS_DQSAT" style="whiteSpace=wrap;html=1;fillColor=#000000;strokeColor=#006EAF;fontColor=#ffffff;rounded=1;" parent="1" vertex="1">
                    <mxGeometry x="690" y="360" width="120" height="60" as="geometry"/>
                </mxCell>
                <mxCell id="38" value="" style="edgeStyle=orthogonalEdgeStyle;html=1;" parent="1" source="16" target="37" edge="1">
                    <mxGeometry relative="1" as="geometry"/>
                </mxCell>
                <mxCell id="40" value="" style="edgeStyle=orthogonalEdgeStyle;html=1;" parent="1" source="16" target="39" edge="1">
                    <mxGeometry relative="1" as="geometry"/>
                </mxCell>
                <mxCell id="42" value="" style="edgeStyle=orthogonalEdgeStyle;html=1;" parent="1" source="16" target="41" edge="1">
                    <mxGeometry relative="1" as="geometry"/>
                </mxCell>
                <mxCell id="16" value="GF_GEOS5_Interface" style="whiteSpace=wrap;html=1;fillColor=#d80073;strokeColor=#A50040;fontColor=#ffffff;rounded=1;" parent="1" vertex="1">
                    <mxGeometry x="205" y="360" width="120" height="60" as="geometry"/>
                </mxCell>
                <mxCell id="36" value="" style="edgeStyle=orthogonalEdgeStyle;html=1;exitX=0.5;exitY=1;exitDx=0;exitDy=0;" parent="1" source="16" target="35" edge="1">
                    <mxGeometry relative="1" as="geometry"/>
                </mxCell>
                <mxCell id="128" style="edgeStyle=orthogonalEdgeStyle;html=1;exitX=0.5;exitY=1;exitDx=0;exitDy=0;" parent="1" source="18" target="35" edge="1">
                    <mxGeometry relative="1" as="geometry">
                        <Array as="points">
                            <mxPoint x="-220" y="480"/>
                            <mxPoint x="-60" y="480"/>
                        </Array>
                    </mxGeometry>
                </mxCell>
                <mxCell id="129" style="edgeStyle=orthogonalEdgeStyle;html=1;exitX=0.5;exitY=1;exitDx=0;exitDy=0;" parent="1" source="18" target="41" edge="1">
                    <mxGeometry relative="1" as="geometry">
                        <Array as="points">
                            <mxPoint x="-220" y="480"/>
                            <mxPoint x="100" y="480"/>
                        </Array>
                    </mxGeometry>
                </mxCell>
                <mxCell id="130" style="edgeStyle=orthogonalEdgeStyle;html=1;exitX=0.5;exitY=1;exitDx=0;exitDy=0;" parent="1" source="18" target="37" edge="1">
                    <mxGeometry relative="1" as="geometry">
                        <Array as="points">
                            <mxPoint x="-220" y="480"/>
                            <mxPoint x="265" y="480"/>
                        </Array>
                    </mxGeometry>
                </mxCell>
                <mxCell id="134" value="" style="edgeStyle=orthogonalEdgeStyle;html=1;exitX=0.5;exitY=1;exitDx=0;exitDy=0;entryX=0.5;entryY=0;entryDx=0;entryDy=0;" parent="1" source="18" target="133" edge="1">
                    <mxGeometry relative="1" as="geometry">
                        <Array as="points">
                            <mxPoint x="-220" y="480"/>
                            <mxPoint x="-540" y="480"/>
                        </Array>
                    </mxGeometry>
                </mxCell>
                <mxCell id="18" value="GF2020_Interface" style="whiteSpace=wrap;html=1;rounded=1;" parent="1" vertex="1">
                    <mxGeometry x="-280" y="360" width="120" height="60" as="geometry"/>
                </mxCell>
                <mxCell id="20" value="" style="edgeStyle=orthogonalEdgeStyle;html=1;exitX=0.5;exitY=1;exitDx=0;exitDy=0;" parent="1" source="30" target="23" edge="1">
                    <mxGeometry relative="1" as="geometry">
                        <mxPoint x="1070" y="420" as="sourcePoint"/>
                    </mxGeometry>
                </mxCell>
                <mxCell id="22" value="" style="edgeStyle=orthogonalEdgeStyle;html=1;entryX=0.5;entryY=0;entryDx=0;entryDy=0;" parent="1" source="23" target="24" edge="1">
                    <mxGeometry relative="1" as="geometry">
                        <mxPoint x="1070.0000000000002" y="649.9999999999998" as="targetPoint"/>
                    </mxGeometry>
                </mxCell>
                <mxCell id="23" value="qsatlqu.code" style="rhombus;whiteSpace=wrap;html=1;fillColor=#FFFF66;strokeColor=#006EAF;fontColor=#000000;" parent="1" vertex="1">
                    <mxGeometry x="1030" y="490" width="80" height="80" as="geometry"/>
                </mxCell>
                <mxCell id="24" value="esatlqu.code" style="rhombus;whiteSpace=wrap;html=1;fillColor=#FFFF66;strokeColor=#006EAF;fontColor=#000000;" parent="1" vertex="1">
                    <mxGeometry x="1030" y="650" width="80" height="80" as="geometry"/>
                </mxCell>
                <mxCell id="25" value="" style="edgeStyle=orthogonalEdgeStyle;html=1;entryX=0.5;entryY=0;entryDx=0;entryDy=0;" parent="1" source="26" target="27" edge="1">
                    <mxGeometry relative="1" as="geometry">
                        <mxPoint x="1230" y="649.9999999999998" as="targetPoint"/>
                    </mxGeometry>
                </mxCell>
                <mxCell id="26" value="qsatice.code" style="rhombus;whiteSpace=wrap;html=1;fillColor=#FFFF66;strokeColor=#006EAF;fontColor=#000000;" parent="1" vertex="1">
                    <mxGeometry x="1190" y="490" width="80" height="80" as="geometry"/>
                </mxCell>
                <mxCell id="27" value="esatice.code" style="rhombus;whiteSpace=wrap;html=1;fillColor=#FFFF66;strokeColor=#006EAF;fontColor=#000000;" parent="1" vertex="1">
                    <mxGeometry x="1190" y="650" width="80" height="80" as="geometry"/>
                </mxCell>
                <mxCell id="31" value="" style="edgeStyle=orthogonalEdgeStyle;html=1;" parent="1" source="28" target="30" edge="1">
                    <mxGeometry relative="1" as="geometry"/>
                </mxCell>
                <mxCell id="33" value="" style="edgeStyle=orthogonalEdgeStyle;html=1;exitX=0.5;exitY=0;exitDx=0;exitDy=0;entryX=0.5;entryY=0;entryDx=0;entryDy=0;" parent="1" source="28" target="32" edge="1">
                    <mxGeometry relative="1" as="geometry">
                        <Array as="points">
                            <mxPoint x="910" y="340"/>
                            <mxPoint x="1230" y="340"/>
                        </Array>
                    </mxGeometry>
                </mxCell>
                <mxCell id="28" value="ESINIT" style="whiteSpace=wrap;html=1;fillColor=#FFFF66;strokeColor=#006EAF;fontColor=#000000;rounded=1;" parent="1" vertex="1">
                    <mxGeometry x="850" y="360" width="120" height="60" as="geometry"/>
                </mxCell>
                <mxCell id="30" value="QSATLQU0" style="whiteSpace=wrap;html=1;fillColor=#FFFF66;strokeColor=#006EAF;fontColor=#000000;rounded=1;" parent="1" vertex="1">
                    <mxGeometry x="1010" y="360" width="120" height="60" as="geometry"/>
                </mxCell>
                <mxCell id="34" value="" style="edgeStyle=orthogonalEdgeStyle;html=1;exitX=0.5;exitY=1;exitDx=0;exitDy=0;" parent="1" source="32" target="26" edge="1">
                    <mxGeometry relative="1" as="geometry"/>
                </mxCell>
                <mxCell id="32" value="QSATICE0" style="whiteSpace=wrap;html=1;fillColor=#FFFF66;strokeColor=#006EAF;fontColor=#000000;rounded=1;" parent="1" vertex="1">
                    <mxGeometry x="1170" y="360" width="120" height="60" as="geometry"/>
                </mxCell>
                <mxCell id="35" value="set_index_loops" style="whiteSpace=wrap;html=1;rounded=1;" parent="1" vertex="1">
                    <mxGeometry x="-120" y="500" width="120" height="60" as="geometry"/>
                </mxCell>
                <mxCell id="37" value="get_vars" style="whiteSpace=wrap;html=1;fillColor=#000000;strokeColor=#006EAF;fontColor=#ffffff;rounded=1;" parent="1" vertex="1">
                    <mxGeometry x="205" y="500" width="120" height="60" as="geometry"/>
                </mxCell>
                <mxCell id="46" value="" style="edgeStyle=orthogonalEdgeStyle;html=1;exitX=0.5;exitY=1;exitDx=0;exitDy=0;" parent="1" source="39" target="45" edge="1">
                    <mxGeometry relative="1" as="geometry"/>
                </mxCell>
                <mxCell id="48" value="" style="edgeStyle=orthogonalEdgeStyle;html=1;exitX=0.5;exitY=1;exitDx=0;exitDy=0;" parent="1" source="39" target="47" edge="1">
                    <mxGeometry relative="1" as="geometry"/>
                </mxCell>
                <mxCell id="39" value="GF_GEOS5_DRV" style="whiteSpace=wrap;html=1;fillColor=#000000;strokeColor=#006EAF;fontColor=#ffffff;rounded=1;" parent="1" vertex="1">
                    <mxGeometry x="365" y="500" width="120" height="60" as="geometry"/>
                </mxCell>
                <mxCell id="41" value="flipz" style="whiteSpace=wrap;html=1;fillColor=#000000;strokeColor=#006EAF;fontColor=#ffffff;rounded=1;" parent="1" vertex="1">
                    <mxGeometry x="40" y="500" width="120" height="60" as="geometry"/>
                </mxCell>
                <mxCell id="50" value="" style="edgeStyle=orthogonalEdgeStyle;html=1;exitX=0.5;exitY=1;exitDx=0;exitDy=0;entryX=0.75;entryY=0;entryDx=0;entryDy=0;" parent="1" source="45" target="49" edge="1">
                    <mxGeometry relative="1" as="geometry"/>
                </mxCell>
                <mxCell id="52" style="edgeStyle=orthogonalEdgeStyle;html=1;exitX=0.5;exitY=1;exitDx=0;exitDy=0;entryX=0.5;entryY=0;entryDx=0;entryDy=0;" parent="1" source="45" target="51" edge="1">
                    <mxGeometry relative="1" as="geometry"/>
                </mxCell>
                <mxCell id="54" value="" style="edgeStyle=orthogonalEdgeStyle;html=1;exitX=0.5;exitY=1;exitDx=0;exitDy=0;" parent="1" source="45" target="53" edge="1">
                    <mxGeometry relative="1" as="geometry"/>
                </mxCell>
                <mxCell id="56" value="" style="edgeStyle=orthogonalEdgeStyle;html=1;exitX=0.5;exitY=1;exitDx=0;exitDy=0;" parent="1" source="45" target="55" edge="1">
                    <mxGeometry relative="1" as="geometry"/>
                </mxCell>
                <mxCell id="58" value="" style="edgeStyle=orthogonalEdgeStyle;html=1;exitX=0.5;exitY=1;exitDx=0;exitDy=0;" parent="1" source="45" target="57" edge="1">
                    <mxGeometry relative="1" as="geometry"/>
                </mxCell>
                <mxCell id="61" value="" style="edgeStyle=orthogonalEdgeStyle;html=1;exitX=0.5;exitY=1;exitDx=0;exitDy=0;" parent="1" source="45" target="60" edge="1">
                    <mxGeometry relative="1" as="geometry"/>
                </mxCell>
                <mxCell id="63" value="" style="edgeStyle=orthogonalEdgeStyle;html=1;exitX=0.5;exitY=1;exitDx=0;exitDy=0;" parent="1" source="45" target="62" edge="1">
                    <mxGeometry relative="1" as="geometry"/>
                </mxCell>
                <mxCell id="65" value="" style="edgeStyle=orthogonalEdgeStyle;html=1;exitX=0.5;exitY=1;exitDx=0;exitDy=0;" parent="1" source="45" target="64" edge="1">
                    <mxGeometry relative="1" as="geometry"/>
                </mxCell>
                <mxCell id="69" value="" style="edgeStyle=orthogonalEdgeStyle;html=1;exitX=0.5;exitY=1;exitDx=0;exitDy=0;" parent="1" source="45" target="68" edge="1">
                    <mxGeometry relative="1" as="geometry"/>
                </mxCell>
                <mxCell id="73" value="" style="edgeStyle=orthogonalEdgeStyle;html=1;exitX=0.5;exitY=1;exitDx=0;exitDy=0;" parent="1" source="45" target="72" edge="1">
                    <mxGeometry relative="1" as="geometry"/>
                </mxCell>
                <mxCell id="75" value="" style="edgeStyle=orthogonalEdgeStyle;html=1;exitX=0.5;exitY=1;exitDx=0;exitDy=0;" parent="1" source="45" target="74" edge="1">
                    <mxGeometry relative="1" as="geometry"/>
                </mxCell>
                <mxCell id="78" value="" style="edgeStyle=orthogonalEdgeStyle;html=1;exitX=0.5;exitY=1;exitDx=0;exitDy=0;" parent="1" source="45" target="77" edge="1">
                    <mxGeometry relative="1" as="geometry"/>
                </mxCell>
                <mxCell id="80" value="" style="edgeStyle=orthogonalEdgeStyle;html=1;exitX=0.5;exitY=1;exitDx=0;exitDy=0;" parent="1" source="45" target="79" edge="1">
                    <mxGeometry relative="1" as="geometry">
                        <mxPoint x="265" y="700" as="sourcePoint"/>
                        <Array as="points">
                            <mxPoint x="265" y="710"/>
                            <mxPoint x="265" y="740"/>
                            <mxPoint x="2185" y="740"/>
                        </Array>
                    </mxGeometry>
                </mxCell>
                <mxCell id="82" value="" style="edgeStyle=orthogonalEdgeStyle;html=1;exitX=0.5;exitY=1;exitDx=0;exitDy=0;" parent="1" source="45" target="81" edge="1">
                    <mxGeometry relative="1" as="geometry"/>
                </mxCell>
                <mxCell id="84" value="" style="edgeStyle=orthogonalEdgeStyle;html=1;exitX=0.5;exitY=1;exitDx=0;exitDy=0;" parent="1" source="45" target="83" edge="1">
                    <mxGeometry relative="1" as="geometry"/>
                </mxCell>
                <mxCell id="86" value="" style="edgeStyle=orthogonalEdgeStyle;html=1;exitX=0.5;exitY=1;exitDx=0;exitDy=0;" parent="1" source="45" target="85" edge="1">
                    <mxGeometry relative="1" as="geometry">
                        <mxPoint x="265" y="700" as="sourcePoint"/>
                        <Array as="points">
                            <mxPoint x="265" y="710"/>
                            <mxPoint x="265" y="740"/>
                            <mxPoint x="2660" y="740"/>
                        </Array>
                    </mxGeometry>
                </mxCell>
                <mxCell id="88" value="" style="edgeStyle=orthogonalEdgeStyle;html=1;exitX=0.5;exitY=1;exitDx=0;exitDy=0;" parent="1" source="45" target="87" edge="1">
                    <mxGeometry relative="1" as="geometry"/>
                </mxCell>
                <mxCell id="90" value="" style="edgeStyle=orthogonalEdgeStyle;html=1;exitX=0.5;exitY=1;exitDx=0;exitDy=0;" parent="1" source="45" target="89" edge="1">
                    <mxGeometry relative="1" as="geometry"/>
                </mxCell>
                <mxCell id="92" value="" style="edgeStyle=orthogonalEdgeStyle;html=1;exitX=0.5;exitY=1;exitDx=0;exitDy=0;" parent="1" source="45" target="91" edge="1">
                    <mxGeometry relative="1" as="geometry"/>
                </mxCell>
                <mxCell id="94" value="" style="edgeStyle=orthogonalEdgeStyle;html=1;exitX=0.5;exitY=1;exitDx=0;exitDy=0;" parent="1" source="45" target="93" edge="1">
                    <mxGeometry relative="1" as="geometry"/>
                </mxCell>
                <mxCell id="96" value="" style="edgeStyle=orthogonalEdgeStyle;html=1;exitX=0.5;exitY=1;exitDx=0;exitDy=0;" parent="1" source="45" target="95" edge="1">
                    <mxGeometry relative="1" as="geometry"/>
                </mxCell>
                <mxCell id="99" value="" style="edgeStyle=orthogonalEdgeStyle;html=1;exitX=0.5;exitY=1;exitDx=0;exitDy=0;" parent="1" source="45" target="98" edge="1">
                    <mxGeometry relative="1" as="geometry"/>
                </mxCell>
                <mxCell id="101" value="" style="edgeStyle=orthogonalEdgeStyle;html=1;exitX=0.5;exitY=1;exitDx=0;exitDy=0;" parent="1" source="45" target="100" edge="1">
                    <mxGeometry relative="1" as="geometry"/>
                </mxCell>
                <mxCell id="103" value="" style="edgeStyle=orthogonalEdgeStyle;html=1;exitX=0.5;exitY=1;exitDx=0;exitDy=0;" parent="1" source="45" target="102" edge="1">
                    <mxGeometry relative="1" as="geometry"/>
                </mxCell>
                <mxCell id="106" value="" style="edgeStyle=orthogonalEdgeStyle;html=1;exitX=0.5;exitY=1;exitDx=0;exitDy=0;" parent="1" source="45" target="105" edge="1">
                    <mxGeometry relative="1" as="geometry"/>
                </mxCell>
                <mxCell id="109" value="" style="edgeStyle=orthogonalEdgeStyle;html=1;exitX=0.5;exitY=1;exitDx=0;exitDy=0;" parent="1" source="45" target="107" edge="1">
                    <mxGeometry relative="1" as="geometry"/>
                </mxCell>
                <mxCell id="111" value="" style="edgeStyle=orthogonalEdgeStyle;html=1;exitX=0.5;exitY=1;exitDx=0;exitDy=0;" parent="1" source="45" target="110" edge="1">
                    <mxGeometry relative="1" as="geometry"/>
                </mxCell>
                <mxCell id="45" value="CUP_gf" style="whiteSpace=wrap;html=1;fillColor=#000000;strokeColor=#006EAF;fontColor=#ffffff;rounded=1;" parent="1" vertex="1">
                    <mxGeometry x="205" y="640" width="120" height="60" as="geometry"/>
                </mxCell>
                <mxCell id="112" value="" style="edgeStyle=orthogonalEdgeStyle;html=1;entryX=0.5;entryY=0;entryDx=0;entryDy=0;" parent="1" source="47" target="49" edge="1">
                    <mxGeometry relative="1" as="geometry">
                        <mxPoint x="130" y="770" as="targetPoint"/>
                        <Array as="points">
                            <mxPoint x="100" y="770"/>
                            <mxPoint x="100" y="770"/>
                        </Array>
                    </mxGeometry>
                </mxCell>
                <mxCell id="113" style="edgeStyle=orthogonalEdgeStyle;html=1;exitX=0.5;exitY=1;exitDx=0;exitDy=0;entryX=0.75;entryY=0;entryDx=0;entryDy=0;" parent="1" source="47" target="51" edge="1">
                    <mxGeometry relative="1" as="geometry">
                        <Array as="points">
                            <mxPoint x="100" y="760"/>
                            <mxPoint x="295" y="760"/>
                        </Array>
                    </mxGeometry>
                </mxCell>
                <mxCell id="114" style="edgeStyle=orthogonalEdgeStyle;html=1;exitX=0.5;exitY=1;exitDx=0;exitDy=0;entryX=0.75;entryY=0;entryDx=0;entryDy=0;" parent="1" source="47" target="55" edge="1">
                    <mxGeometry relative="1" as="geometry">
                        <Array as="points">
                            <mxPoint x="100" y="760"/>
                            <mxPoint x="615" y="760"/>
                        </Array>
                    </mxGeometry>
                </mxCell>
                <mxCell id="115" style="edgeStyle=orthogonalEdgeStyle;html=1;exitX=0.5;exitY=1;exitDx=0;exitDy=0;entryX=0.75;entryY=0;entryDx=0;entryDy=0;" parent="1" source="47" target="57" edge="1">
                    <mxGeometry relative="1" as="geometry">
                        <Array as="points">
                            <mxPoint x="100" y="760"/>
                            <mxPoint x="780" y="760"/>
                        </Array>
                    </mxGeometry>
                </mxCell>
                <mxCell id="116" style="edgeStyle=orthogonalEdgeStyle;html=1;exitX=0.5;exitY=1;exitDx=0;exitDy=0;entryX=0.75;entryY=0;entryDx=0;entryDy=0;" parent="1" source="47" target="64" edge="1">
                    <mxGeometry relative="1" as="geometry">
                        <Array as="points">
                            <mxPoint x="100" y="760"/>
                            <mxPoint x="1260" y="760"/>
                        </Array>
                    </mxGeometry>
                </mxCell>
                <mxCell id="117" style="edgeStyle=orthogonalEdgeStyle;html=1;exitX=0.5;exitY=1;exitDx=0;exitDy=0;entryX=0.75;entryY=0;entryDx=0;entryDy=0;" parent="1" source="47" target="68" edge="1">
                    <mxGeometry relative="1" as="geometry">
                        <mxPoint x="940" y="730" as="targetPoint"/>
                        <Array as="points">
                            <mxPoint x="100" y="760"/>
                            <mxPoint x="1420" y="760"/>
                        </Array>
                    </mxGeometry>
                </mxCell>
                <mxCell id="118" style="edgeStyle=orthogonalEdgeStyle;html=1;exitX=0.5;exitY=1;exitDx=0;exitDy=0;entryX=0.75;entryY=0;entryDx=0;entryDy=0;" parent="1" source="47" target="70" edge="1">
                    <mxGeometry relative="1" as="geometry">
                        <Array as="points">
                            <mxPoint x="100" y="760"/>
                            <mxPoint x="1580" y="760"/>
                        </Array>
                    </mxGeometry>
                </mxCell>
                <mxCell id="119" style="edgeStyle=orthogonalEdgeStyle;html=1;exitX=0.5;exitY=1;exitDx=0;exitDy=0;entryX=0.75;entryY=0;entryDx=0;entryDy=0;" parent="1" source="47" target="74" edge="1">
                    <mxGeometry relative="1" as="geometry">
                        <Array as="points">
                            <mxPoint x="100" y="760"/>
                            <mxPoint x="1900" y="760"/>
                        </Array>
                    </mxGeometry>
                </mxCell>
                <mxCell id="120" style="edgeStyle=orthogonalEdgeStyle;html=1;exitX=0.5;exitY=1;exitDx=0;exitDy=0;entryX=0.75;entryY=0;entryDx=0;entryDy=0;" parent="1" source="47" target="77" edge="1">
                    <mxGeometry relative="1" as="geometry">
                        <Array as="points">
                            <mxPoint x="100" y="760"/>
                            <mxPoint x="2060" y="760"/>
                        </Array>
                    </mxGeometry>
                </mxCell>
                <mxCell id="122" style="edgeStyle=orthogonalEdgeStyle;html=1;exitX=0.5;exitY=1;exitDx=0;exitDy=0;" parent="1" source="47" target="121" edge="1">
                    <mxGeometry relative="1" as="geometry">
                        <Array as="points">
                            <mxPoint x="100" y="760"/>
                            <mxPoint x="-60" y="760"/>
                        </Array>
                    </mxGeometry>
                </mxCell>
                <mxCell id="123" style="edgeStyle=orthogonalEdgeStyle;html=1;exitX=0.5;exitY=1;exitDx=0;exitDy=0;entryX=0.75;entryY=0;entryDx=0;entryDy=0;" parent="1" source="47" target="100" edge="1">
                    <mxGeometry relative="1" as="geometry">
                        <Array as="points">
                            <mxPoint x="100" y="760"/>
                            <mxPoint x="3810" y="760"/>
                        </Array>
                    </mxGeometry>
                </mxCell>
                <mxCell id="124" style="edgeStyle=orthogonalEdgeStyle;html=1;exitX=0.5;exitY=1;exitDx=0;exitDy=0;entryX=0.75;entryY=0;entryDx=0;entryDy=0;" parent="1" source="47" target="107" edge="1">
                    <mxGeometry relative="1" as="geometry">
                        <Array as="points">
                            <mxPoint x="100" y="760"/>
                            <mxPoint x="4290" y="760"/>
                        </Array>
                    </mxGeometry>
                </mxCell>
                <mxCell id="126" style="edgeStyle=orthogonalEdgeStyle;html=1;exitX=0.5;exitY=1;exitDx=0;exitDy=0;" parent="1" source="47" target="125" edge="1">
                    <mxGeometry relative="1" as="geometry">
                        <Array as="points">
                            <mxPoint x="100" y="760"/>
                            <mxPoint x="-220" y="760"/>
                        </Array>
                    </mxGeometry>
                </mxCell>
                <mxCell id="47" value="CUP_gf_sh" style="whiteSpace=wrap;html=1;fillColor=#000000;strokeColor=#006EAF;fontColor=#ffffff;rounded=1;" parent="1" vertex="1">
                    <mxGeometry x="40" y="640" width="120" height="60" as="geometry"/>
                </mxCell>
                <mxCell id="49" value="cup_env" style="whiteSpace=wrap;html=1;fillColor=#000000;strokeColor=#006EAF;fontColor=#ffffff;rounded=1;" parent="1" vertex="1">
                    <mxGeometry x="40" y="780" width="120" height="60" as="geometry"/>
                </mxCell>
                <mxCell id="51" value="cup_env_clev" style="whiteSpace=wrap;html=1;fillColor=#000000;strokeColor=#006EAF;fontColor=#ffffff;rounded=1;" parent="1" vertex="1">
                    <mxGeometry x="205" y="780" width="120" height="60" as="geometry"/>
                </mxCell>
                <mxCell id="53" value="get_partition_liq_ice" style="whiteSpace=wrap;html=1;fillColor=#000000;strokeColor=#006EAF;fontColor=#ffffff;rounded=1;" parent="1" vertex="1">
                    <mxGeometry x="365" y="780" width="120" height="60" as="geometry"/>
                </mxCell>
                <mxCell id="55" value="get_cloud_bc" style="whiteSpace=wrap;html=1;fillColor=#000000;strokeColor=#006EAF;fontColor=#ffffff;rounded=1;" parent="1" vertex="1">
                    <mxGeometry x="525" y="780" width="120" height="60" as="geometry"/>
                </mxCell>
                <mxCell id="59" value="" style="edgeStyle=orthogonalEdgeStyle;html=1;" parent="1" source="57" target="55" edge="1">
                    <mxGeometry relative="1" as="geometry"/>
                </mxCell>
                <mxCell id="57" value="cup_cloud_limits" style="whiteSpace=wrap;html=1;fillColor=#000000;strokeColor=#006EAF;fontColor=#ffffff;rounded=1;" parent="1" vertex="1">
                    <mxGeometry x="690" y="780" width="120" height="60" as="geometry"/>
                </mxCell>
                <mxCell id="60" value="cup_minimi" style="whiteSpace=wrap;html=1;fillColor=#000000;strokeColor=#006EAF;fontColor=#ffffff;rounded=1;" parent="1" vertex="1">
                    <mxGeometry x="850" y="780" width="120" height="60" as="geometry"/>
                </mxCell>
                <mxCell id="62" value="rates_up_pdf" style="whiteSpace=wrap;html=1;fillColor=#000000;strokeColor=#006EAF;fontColor=#ffffff;rounded=1;" parent="1" vertex="1">
                    <mxGeometry x="1010" y="780" width="120" height="60" as="geometry"/>
                </mxCell>
                <mxCell id="67" value="" style="edgeStyle=orthogonalEdgeStyle;html=1;" parent="1" source="64" target="66" edge="1">
                    <mxGeometry relative="1" as="geometry"/>
                </mxCell>
                <mxCell id="64" value="get_inversion_layers" style="whiteSpace=wrap;html=1;fillColor=#000000;strokeColor=#006EAF;fontColor=#ffffff;rounded=1;" parent="1" vertex="1">
                    <mxGeometry x="1170" y="780" width="120" height="60" as="geometry"/>
                </mxCell>
                <mxCell id="66" value="deriv3" style="whiteSpace=wrap;html=1;fillColor=#000000;strokeColor=#006EAF;fontColor=#ffffff;rounded=1;" parent="1" vertex="1">
                    <mxGeometry x="1170" y="920" width="120" height="60" as="geometry"/>
                </mxCell>
                <mxCell id="71" value="" style="edgeStyle=orthogonalEdgeStyle;html=1;exitX=0.5;exitY=1;exitDx=0;exitDy=0;" parent="1" source="45" target="70" edge="1">
                    <mxGeometry relative="1" as="geometry">
                        <mxPoint x="730" y="690" as="sourcePoint"/>
                    </mxGeometry>
                </mxCell>
                <mxCell id="68" value="get_zu_zd_pdf" style="whiteSpace=wrap;html=1;fillColor=#000000;strokeColor=#006EAF;fontColor=#ffffff;rounded=1;" parent="1" vertex="1">
                    <mxGeometry x="1330" y="780" width="120" height="60" as="geometry"/>
                </mxCell>
                <mxCell id="70" value="get_lateral_massflux" style="whiteSpace=wrap;html=1;fillColor=#000000;strokeColor=#006EAF;fontColor=#ffffff;rounded=1;" parent="1" vertex="1">
                    <mxGeometry x="1490" y="780" width="120" height="60" as="geometry"/>
                </mxCell>
                <mxCell id="72" value="get_bouyancy" style="whiteSpace=wrap;html=1;fillColor=#000000;strokeColor=#006EAF;fontColor=#ffffff;rounded=1;" parent="1" vertex="1">
                    <mxGeometry x="1650" y="780" width="120" height="60" as="geometry"/>
                </mxCell>
                <mxCell id="76" style="edgeStyle=orthogonalEdgeStyle;html=1;exitX=0.5;exitY=1;exitDx=0;exitDy=0;entryX=0.75;entryY=1;entryDx=0;entryDy=0;" parent="1" source="74" target="55" edge="1">
                    <mxGeometry relative="1" as="geometry">
                        <mxPoint x="1090" y="900" as="targetPoint"/>
                        <Array as="points">
                            <mxPoint x="1870" y="860"/>
                            <mxPoint x="615" y="860"/>
                        </Array>
                    </mxGeometry>
                </mxCell>
                <mxCell id="74" value="cup_up_moisture" style="whiteSpace=wrap;html=1;fillColor=#000000;strokeColor=#006EAF;fontColor=#ffffff;rounded=1;" parent="1" vertex="1">
                    <mxGeometry x="1810" y="780" width="120" height="60" as="geometry"/>
                </mxCell>
                <mxCell id="77" value="cup_up_vvel" style="whiteSpace=wrap;html=1;fillColor=#000000;strokeColor=#006EAF;fontColor=#ffffff;rounded=1;" parent="1" vertex="1">
                    <mxGeometry x="1970" y="780" width="120" height="60" as="geometry"/>
                </mxCell>
                <mxCell id="79" value="get_lateral_ massflux_down" style="whiteSpace=wrap;html=1;fillColor=#000000;strokeColor=#006EAF;fontColor=#ffffff;rounded=1;" parent="1" vertex="1">
                    <mxGeometry x="2125" y="780" width="120" height="60" as="geometry"/>
                </mxCell>
                <mxCell id="81" value="cup_dd_moisture" style="whiteSpace=wrap;html=1;fillColor=#000000;strokeColor=#006EAF;fontColor=#ffffff;rounded=1;" parent="1" vertex="1">
                    <mxGeometry x="2280" y="780" width="120" height="60" as="geometry"/>
                </mxCell>
                <mxCell id="83" value="cup_up_aa0" style="whiteSpace=wrap;html=1;fillColor=#000000;strokeColor=#006EAF;fontColor=#ffffff;rounded=1;" parent="1" vertex="1">
                    <mxGeometry x="2440" y="780" width="120" height="60" as="geometry"/>
                </mxCell>
                <mxCell id="85" value="cup_up_aa1bl" style="whiteSpace=wrap;html=1;fillColor=#000000;strokeColor=#006EAF;fontColor=#ffffff;rounded=1;" parent="1" vertex="1">
                    <mxGeometry x="2600" y="780" width="120" height="60" as="geometry"/>
                </mxCell>
                <mxCell id="87" value="cup_dd_edt" style="whiteSpace=wrap;html=1;fillColor=#000000;strokeColor=#006EAF;fontColor=#ffffff;rounded=1;" parent="1" vertex="1">
                    <mxGeometry x="2760" y="780" width="120" height="60" as="geometry"/>
                </mxCell>
                <mxCell id="89" value="cup_forcing_ens_3d" style="whiteSpace=wrap;html=1;fillColor=#000000;strokeColor=#006EAF;fontColor=#ffffff;rounded=1;" parent="1" vertex="1">
                    <mxGeometry x="2920" y="780" width="120" height="60" as="geometry"/>
                </mxCell>
                <mxCell id="91" value="cup_forcing_ens_ 3d_mid" style="whiteSpace=wrap;html=1;fillColor=#000000;strokeColor=#006EAF;fontColor=#ffffff;rounded=1;" parent="1" vertex="1">
                    <mxGeometry x="3080" y="780" width="120" height="60" as="geometry"/>
                </mxCell>
                <mxCell id="93" value="ke_to_heating" style="whiteSpace=wrap;html=1;fillColor=#000000;strokeColor=#006EAF;fontColor=#ffffff;rounded=1;" parent="1" vertex="1">
                    <mxGeometry x="3240" y="780" width="120" height="60" as="geometry"/>
                </mxCell>
                <mxCell id="95" value="cup_env_output_3d" style="whiteSpace=wrap;html=1;fillColor=#000000;strokeColor=#006EAF;fontColor=#ffffff;rounded=1;" parent="1" vertex="1">
                    <mxGeometry x="3400" y="780" width="120" height="60" as="geometry"/>
                </mxCell>
                <mxCell id="98" value="get_precip_fluxes" style="whiteSpace=wrap;html=1;fillColor=#000000;strokeColor=#006EAF;fontColor=#ffffff;rounded=1;" parent="1" vertex="1">
                    <mxGeometry x="3560" y="780" width="120" height="60" as="geometry"/>
                </mxCell>
                <mxCell id="100" value="cup_env_clev_chem" style="whiteSpace=wrap;html=1;fillColor=#000000;strokeColor=#006EAF;fontColor=#ffffff;rounded=1;" parent="1" vertex="1">
                    <mxGeometry x="3720" y="780" width="120" height="60" as="geometry"/>
                </mxCell>
                <mxCell id="104" style="edgeStyle=orthogonalEdgeStyle;html=1;exitX=0.5;exitY=1;exitDx=0;exitDy=0;entryX=0.75;entryY=1;entryDx=0;entryDy=0;" parent="1" source="102" target="55" edge="1">
                    <mxGeometry relative="1" as="geometry">
                        <mxPoint x="1030" y="880" as="targetPoint"/>
                        <Array as="points">
                            <mxPoint x="3940" y="860"/>
                            <mxPoint x="615" y="860"/>
                        </Array>
                    </mxGeometry>
                </mxCell>
                <mxCell id="102" value="get_incloud_sc_ chem_up" style="whiteSpace=wrap;html=1;fillColor=#000000;strokeColor=#006EAF;fontColor=#ffffff;rounded=1;" parent="1" vertex="1">
                    <mxGeometry x="3880" y="780" width="120" height="60" as="geometry"/>
                </mxCell>
                <mxCell id="105" value="get_incloud_sc_ chem_dd" style="whiteSpace=wrap;html=1;fillColor=#000000;strokeColor=#006EAF;fontColor=#ffffff;rounded=1;" parent="1" vertex="1">
                    <mxGeometry x="4040" y="780" width="120" height="60" as="geometry"/>
                </mxCell>
                <mxCell id="107" value="fct1d3" style="whiteSpace=wrap;html=1;fillColor=#000000;strokeColor=#006EAF;fontColor=#ffffff;rounded=1;" parent="1" vertex="1">
                    <mxGeometry x="4200" y="780" width="120" height="60" as="geometry"/>
                </mxCell>
                <mxCell id="110" value="tridiag" style="whiteSpace=wrap;html=1;fillColor=#000000;strokeColor=#006EAF;fontColor=#ffffff;rounded=1;" parent="1" vertex="1">
                    <mxGeometry x="4360" y="780" width="120" height="60" as="geometry"/>
                </mxCell>
                <mxCell id="121" value="cup_up_cape" style="whiteSpace=wrap;html=1;fillColor=#000000;strokeColor=#006EAF;fontColor=#ffffff;rounded=1;" parent="1" vertex="1">
                    <mxGeometry x="-120" y="780" width="120" height="60" as="geometry"/>
                </mxCell>
                <mxCell id="125" value="bidiag" style="whiteSpace=wrap;html=1;fillColor=#000000;strokeColor=#006EAF;fontColor=#ffffff;rounded=1;" parent="1" vertex="1">
                    <mxGeometry x="-280" y="780" width="120" height="60" as="geometry"/>
                </mxCell>
                <mxCell id="136" value="" style="edgeStyle=none;html=1;entryX=0.5;entryY=0;entryDx=0;entryDy=0;" parent="1" source="133" target="138" edge="1">
                    <mxGeometry relative="1" as="geometry"/>
                </mxCell>
                <mxCell id="133" value="GF2020_DRV" style="whiteSpace=wrap;html=1;fillColor=#000000;strokeColor=#006EAF;fontColor=#ffffff;rounded=1;" parent="1" vertex="1">
                    <mxGeometry x="-600" y="500" width="120" height="60" as="geometry"/>
                </mxCell>
                <mxCell id="140" value="" style="edgeStyle=orthogonalEdgeStyle;html=1;" parent="1" source="138" target="139" edge="1">
                    <mxGeometry relative="1" as="geometry"/>
                </mxCell>
                <mxCell id="144" value="" style="edgeStyle=orthogonalEdgeStyle;html=1;exitX=0.5;exitY=1;exitDx=0;exitDy=0;entryX=0.5;entryY=0;entryDx=0;entryDy=0;" parent="1" source="138" target="143" edge="1">
                    <mxGeometry relative="1" as="geometry"/>
                </mxCell>
                <mxCell id="146" value="" style="edgeStyle=orthogonalEdgeStyle;html=1;exitX=0.5;exitY=1;exitDx=0;exitDy=0;" parent="1" source="138" target="145" edge="1">
                    <mxGeometry relative="1" as="geometry"/>
                </mxCell>
                <mxCell id="148" value="" style="edgeStyle=orthogonalEdgeStyle;html=1;exitX=0.5;exitY=1;exitDx=0;exitDy=0;" parent="1" source="138" target="147" edge="1">
                    <mxGeometry relative="1" as="geometry"/>
                </mxCell>
                <mxCell id="150" value="" style="edgeStyle=orthogonalEdgeStyle;html=1;exitX=0.5;exitY=1;exitDx=0;exitDy=0;" parent="1" source="138" target="149" edge="1">
                    <mxGeometry relative="1" as="geometry"/>
                </mxCell>
                <mxCell id="152" value="" style="edgeStyle=orthogonalEdgeStyle;html=1;exitX=0.5;exitY=1;exitDx=0;exitDy=0;" parent="1" source="138" target="151" edge="1">
                    <mxGeometry relative="1" as="geometry"/>
                </mxCell>
                <mxCell id="153" style="edgeStyle=orthogonalEdgeStyle;html=1;exitX=1;exitY=0.5;exitDx=0;exitDy=0;entryX=0.25;entryY=1;entryDx=0;entryDy=0;" parent="1" source="138" target="55" edge="1">
                    <mxGeometry relative="1" as="geometry">
                        <Array as="points">
                            <mxPoint x="-300" y="670"/>
                            <mxPoint x="-300" y="860"/>
                            <mxPoint x="555" y="860"/>
                        </Array>
                    </mxGeometry>
                </mxCell>
                <mxCell id="156" value="" style="edgeStyle=orthogonalEdgeStyle;html=1;" parent="1" source="138" target="155" edge="1">
                    <mxGeometry relative="1" as="geometry">
                        <Array as="points">
                            <mxPoint x="-540" y="740"/>
                            <mxPoint x="-380" y="740"/>
                        </Array>
                    </mxGeometry>
                </mxCell>
                <mxCell id="159" value="" style="edgeStyle=orthogonalEdgeStyle;html=1;exitX=0.5;exitY=1;exitDx=0;exitDy=0;" parent="1" source="138" target="158" edge="1">
                    <mxGeometry relative="1" as="geometry"/>
                </mxCell>
                <mxCell id="164" style="edgeStyle=orthogonalEdgeStyle;html=1;exitX=0.5;exitY=1;exitDx=0;exitDy=0;" parent="1" source="138" target="160" edge="1">
                    <mxGeometry relative="1" as="geometry"/>
                </mxCell>
                <mxCell id="165" style="edgeStyle=orthogonalEdgeStyle;html=1;exitX=0.5;exitY=1;exitDx=0;exitDy=0;" parent="1" source="138" target="161" edge="1">
                    <mxGeometry relative="1" as="geometry"/>
                </mxCell>
                <mxCell id="166" style="edgeStyle=orthogonalEdgeStyle;html=1;exitX=0.5;exitY=1;exitDx=0;exitDy=0;entryX=0.5;entryY=0;entryDx=0;entryDy=0;" parent="1" source="138" target="162" edge="1">
                    <mxGeometry relative="1" as="geometry">
                        <mxPoint x="-1780" y="680" as="targetPoint"/>
                    </mxGeometry>
                </mxCell>
                <mxCell id="167" style="edgeStyle=orthogonalEdgeStyle;html=1;exitX=0.5;exitY=1;exitDx=0;exitDy=0;entryX=0.5;entryY=0;entryDx=0;entryDy=0;" parent="1" source="138" target="163" edge="1">
                    <mxGeometry relative="1" as="geometry">
                        <mxPoint x="-1570" y="699.7619047619046" as="targetPoint"/>
                    </mxGeometry>
                </mxCell>
                <mxCell id="169" style="edgeStyle=orthogonalEdgeStyle;html=1;exitX=0.5;exitY=1;exitDx=0;exitDy=0;entryX=0.5;entryY=0;entryDx=0;entryDy=0;" parent="1" source="138" target="168" edge="1">
                    <mxGeometry relative="1" as="geometry"/>
                </mxCell>
                <mxCell id="173" style="edgeStyle=orthogonalEdgeStyle;html=1;exitX=0.5;exitY=1;exitDx=0;exitDy=0;entryX=0.5;entryY=0;entryDx=0;entryDy=0;" parent="1" source="138" target="171" edge="1">
                    <mxGeometry relative="1" as="geometry">
                        <mxPoint x="-1750" y="730" as="targetPoint"/>
                    </mxGeometry>
                </mxCell>
                <mxCell id="174" style="edgeStyle=orthogonalEdgeStyle;html=1;exitX=0.5;exitY=1;exitDx=0;exitDy=0;entryX=0.5;entryY=0;entryDx=0;entryDy=0;" parent="1" source="138" target="172" edge="1">
                    <mxGeometry relative="1" as="geometry">
                        <mxPoint x="-1620" y="660" as="targetPoint"/>
                    </mxGeometry>
                </mxCell>
                <mxCell id="179" style="edgeStyle=orthogonalEdgeStyle;html=1;exitX=0.5;exitY=1;exitDx=0;exitDy=0;entryX=0.5;entryY=0;entryDx=0;entryDy=0;" parent="1" source="138" target="178" edge="1">
                    <mxGeometry relative="1" as="geometry">
                        <mxPoint x="-1740" y="630" as="targetPoint"/>
                    </mxGeometry>
                </mxCell>
                <mxCell id="181" style="edgeStyle=orthogonalEdgeStyle;html=1;exitX=0.5;exitY=1;exitDx=0;exitDy=0;entryX=0.5;entryY=0;entryDx=0;entryDy=0;" parent="1" source="138" target="175" edge="1">
                    <mxGeometry relative="1" as="geometry">
                        <mxPoint x="-2070" y="630" as="targetPoint"/>
                    </mxGeometry>
                </mxCell>
                <mxCell id="184" style="edgeStyle=orthogonalEdgeStyle;html=1;exitX=0.5;exitY=1;exitDx=0;exitDy=0;" parent="1" source="138" target="182" edge="1">
                    <mxGeometry relative="1" as="geometry">
                        <mxPoint x="-1850" y="590" as="targetPoint"/>
                    </mxGeometry>
                </mxCell>
                <mxCell id="185" style="edgeStyle=orthogonalEdgeStyle;html=1;exitX=0.5;exitY=1;exitDx=0;exitDy=0;" parent="1" source="138" target="183" edge="1">
                    <mxGeometry relative="1" as="geometry">
                        <mxPoint x="-2060" y="620" as="targetPoint"/>
                    </mxGeometry>
                </mxCell>
                <mxCell id="187" style="edgeStyle=orthogonalEdgeStyle;html=1;exitX=0.5;exitY=1;exitDx=0;exitDy=0;entryX=0.5;entryY=0;entryDx=0;entryDy=0;" parent="1" source="138" target="186" edge="1">
                    <mxGeometry relative="1" as="geometry">
                        <mxPoint x="-2000" y="600" as="targetPoint"/>
                    </mxGeometry>
                </mxCell>
                <mxCell id="191" style="edgeStyle=orthogonalEdgeStyle;html=1;exitX=0.5;exitY=1;exitDx=0;exitDy=0;entryX=0.5;entryY=0;entryDx=0;entryDy=0;" parent="1" source="138" target="189" edge="1">
                    <mxGeometry relative="1" as="geometry">
                        <mxPoint x="-3240" y="670" as="targetPoint"/>
                    </mxGeometry>
                </mxCell>
                <mxCell id="192" style="edgeStyle=orthogonalEdgeStyle;html=1;exitX=0.5;exitY=1;exitDx=0;exitDy=0;" parent="1" source="138" target="190" edge="1">
                    <mxGeometry relative="1" as="geometry">
                        <mxPoint x="-2255.3333333333335" y="580" as="targetPoint"/>
                    </mxGeometry>
                </mxCell>
                <mxCell id="193" style="edgeStyle=orthogonalEdgeStyle;html=1;exitX=0.5;exitY=1;exitDx=0;exitDy=0;" parent="1" source="138" target="188" edge="1">
                    <mxGeometry relative="1" as="geometry">
                        <mxPoint x="-1830" y="630" as="targetPoint"/>
                    </mxGeometry>
                </mxCell>
                <mxCell id="196" style="edgeStyle=orthogonalEdgeStyle;html=1;exitX=0.5;exitY=1;exitDx=0;exitDy=0;entryX=0.5;entryY=0;entryDx=0;entryDy=0;" parent="1" source="138" target="194" edge="1">
                    <mxGeometry relative="1" as="geometry"/>
                </mxCell>
                <mxCell id="197" style="edgeStyle=orthogonalEdgeStyle;html=1;exitX=0.5;exitY=1;exitDx=0;exitDy=0;" parent="1" source="138" target="195" edge="1">
                    <mxGeometry relative="1" as="geometry"/>
                </mxCell>
                <mxCell id="199" style="edgeStyle=orthogonalEdgeStyle;html=1;exitX=0.5;exitY=1;exitDx=0;exitDy=0;" parent="1" source="138" target="198" edge="1">
                    <mxGeometry relative="1" as="geometry"/>
                </mxCell>
                <mxCell id="205" style="edgeStyle=orthogonalEdgeStyle;html=1;exitX=0.5;exitY=1;exitDx=0;exitDy=0;" parent="1" source="138" target="200" edge="1">
                    <mxGeometry relative="1" as="geometry"/>
                </mxCell>
                <mxCell id="206" style="edgeStyle=orthogonalEdgeStyle;html=1;exitX=0.5;exitY=1;exitDx=0;exitDy=0;" parent="1" source="138" target="201" edge="1">
                    <mxGeometry relative="1" as="geometry"/>
                </mxCell>
                <mxCell id="207" style="edgeStyle=orthogonalEdgeStyle;html=1;exitX=0.5;exitY=1;exitDx=0;exitDy=0;" parent="1" source="138" target="202" edge="1">
                    <mxGeometry relative="1" as="geometry"/>
                </mxCell>
                <mxCell id="208" style="edgeStyle=orthogonalEdgeStyle;html=1;exitX=0.5;exitY=1;exitDx=0;exitDy=0;" parent="1" source="138" target="203" edge="1">
                    <mxGeometry relative="1" as="geometry"/>
                </mxCell>
                <mxCell id="209" style="edgeStyle=orthogonalEdgeStyle;html=1;exitX=0.5;exitY=1;exitDx=0;exitDy=0;" parent="1" source="138" target="204" edge="1">
                    <mxGeometry relative="1" as="geometry"/>
                </mxCell>
                <mxCell id="211" style="edgeStyle=orthogonalEdgeStyle;html=1;exitX=0.5;exitY=1;exitDx=0;exitDy=0;" parent="1" source="138" target="210" edge="1">
                    <mxGeometry relative="1" as="geometry"/>
                </mxCell>
                <mxCell id="217" style="edgeStyle=orthogonalEdgeStyle;html=1;exitX=0.5;exitY=1;exitDx=0;exitDy=0;" parent="1" source="138" target="212" edge="1">
                    <mxGeometry relative="1" as="geometry"/>
                </mxCell>
                <mxCell id="218" style="edgeStyle=orthogonalEdgeStyle;html=1;exitX=0.5;exitY=1;exitDx=0;exitDy=0;" parent="1" source="138" target="213" edge="1">
                    <mxGeometry relative="1" as="geometry"/>
                </mxCell>
                <mxCell id="219" style="edgeStyle=orthogonalEdgeStyle;html=1;exitX=0.5;exitY=1;exitDx=0;exitDy=0;" parent="1" source="138" target="214" edge="1">
                    <mxGeometry relative="1" as="geometry"/>
                </mxCell>
                <mxCell id="220" style="edgeStyle=orthogonalEdgeStyle;html=1;exitX=0.5;exitY=1;exitDx=0;exitDy=0;" parent="1" source="138" target="215" edge="1">
                    <mxGeometry relative="1" as="geometry"/>
                </mxCell>
                <mxCell id="221" style="edgeStyle=orthogonalEdgeStyle;html=1;exitX=0.5;exitY=1;exitDx=0;exitDy=0;" parent="1" source="138" target="216" edge="1">
                    <mxGeometry relative="1" as="geometry"/>
                </mxCell>
                <mxCell id="225" style="edgeStyle=orthogonalEdgeStyle;html=1;exitX=0.5;exitY=1;exitDx=0;exitDy=0;" parent="1" source="138" target="222" edge="1">
                    <mxGeometry relative="1" as="geometry"/>
                </mxCell>
                <mxCell id="226" style="edgeStyle=orthogonalEdgeStyle;html=1;exitX=0.5;exitY=1;exitDx=0;exitDy=0;" parent="1" source="138" target="223" edge="1">
                    <mxGeometry relative="1" as="geometry"/>
                </mxCell>
                <mxCell id="227" style="edgeStyle=orthogonalEdgeStyle;html=1;exitX=0.5;exitY=1;exitDx=0;exitDy=0;" parent="1" source="138" target="224" edge="1">
                    <mxGeometry relative="1" as="geometry"/>
                </mxCell>
                <mxCell id="138" value="CUP_gf" style="whiteSpace=wrap;html=1;fillColor=#000000;strokeColor=#006EAF;fontColor=#ffffff;rounded=1;" parent="1" vertex="1">
                    <mxGeometry x="-600" y="640" width="120" height="60" as="geometry"/>
                </mxCell>
                <mxCell id="139" value="gen_random" style="whiteSpace=wrap;html=1;fillColor=#000000;strokeColor=#006EAF;fontColor=#ffffff;rounded=1;" parent="1" vertex="1">
                    <mxGeometry x="-600" y="780" width="120" height="60" as="geometry"/>
                </mxCell>
                <mxCell id="143" value="cup_env" style="whiteSpace=wrap;html=1;fillColor=#000000;strokeColor=#006EAF;fontColor=#ffffff;rounded=1;" parent="1" vertex="1">
                    <mxGeometry x="-760" y="780" width="120" height="60" as="geometry"/>
                </mxCell>
                <mxCell id="145" value="SOUND" style="whiteSpace=wrap;html=1;fillColor=#000000;strokeColor=#006EAF;fontColor=#ffffff;rounded=1;" parent="1" vertex="1">
                    <mxGeometry x="-920" y="780" width="120" height="60" as="geometry"/>
                </mxCell>
                <mxCell id="147" value="cup_env_clev" style="whiteSpace=wrap;html=1;fillColor=#000000;strokeColor=#006EAF;fontColor=#ffffff;rounded=1;" parent="1" vertex="1">
                    <mxGeometry x="-1080" y="780" width="120" height="60" as="geometry"/>
                </mxCell>
                <mxCell id="149" value="get_partition_liq_ice" style="whiteSpace=wrap;html=1;fillColor=#000000;strokeColor=#006EAF;fontColor=#ffffff;rounded=1;" parent="1" vertex="1">
                    <mxGeometry x="-1240" y="780" width="120" height="60" as="geometry"/>
                </mxCell>
                <mxCell id="151" value="precip_cwv_factor" style="whiteSpace=wrap;html=1;fillColor=#000000;strokeColor=#006EAF;fontColor=#ffffff;rounded=1;" parent="1" vertex="1">
                    <mxGeometry x="-1400" y="780" width="120" height="60" as="geometry"/>
                </mxCell>
                <mxCell id="157" style="edgeStyle=orthogonalEdgeStyle;html=1;exitX=0.5;exitY=1;exitDx=0;exitDy=0;entryX=0.25;entryY=1;entryDx=0;entryDy=0;" parent="1" source="155" target="55" edge="1">
                    <mxGeometry relative="1" as="geometry">
                        <mxPoint x="250" y="880" as="targetPoint"/>
                        <Array as="points">
                            <mxPoint x="-380" y="860"/>
                            <mxPoint x="555" y="860"/>
                        </Array>
                    </mxGeometry>
                </mxCell>
                <mxCell id="155" value="cup_cloud_limits" style="whiteSpace=wrap;html=1;fillColor=#000000;strokeColor=#006EAF;fontColor=#ffffff;rounded=1;" parent="1" vertex="1">
                    <mxGeometry x="-440" y="780" width="120" height="60" as="geometry"/>
                </mxCell>
                <mxCell id="158" value="cup_minimi" style="whiteSpace=wrap;html=1;fillColor=#000000;strokeColor=#006EAF;fontColor=#ffffff;rounded=1;" parent="1" vertex="1">
                    <mxGeometry x="-1560" y="780" width="120" height="60" as="geometry"/>
                </mxCell>
                <mxCell id="160" value="rates_up_pdf" style="whiteSpace=wrap;html=1;fillColor=#000000;strokeColor=#006EAF;fontColor=#ffffff;rounded=1;" parent="1" vertex="1">
                    <mxGeometry x="-1720" y="780" width="120" height="60" as="geometry"/>
                </mxCell>
                <mxCell id="161" value="get_zu_zd_pdf" style="whiteSpace=wrap;html=1;fillColor=#000000;strokeColor=#006EAF;fontColor=#ffffff;rounded=1;" parent="1" vertex="1">
                    <mxGeometry x="-1880" y="780" width="120" height="60" as="geometry"/>
                </mxCell>
                <mxCell id="162" value="get_lateral_massflux" style="whiteSpace=wrap;html=1;fillColor=#000000;strokeColor=#006EAF;fontColor=#ffffff;rounded=1;" parent="1" vertex="1">
                    <mxGeometry x="-2040" y="780" width="120" height="60" as="geometry"/>
                </mxCell>
                <mxCell id="163" value="get_buoyancy" style="whiteSpace=wrap;html=1;fillColor=#000000;strokeColor=#006EAF;fontColor=#ffffff;rounded=1;" parent="1" vertex="1">
                    <mxGeometry x="-2200" y="780" width="120" height="60" as="geometry"/>
                </mxCell>
                <mxCell id="170" style="edgeStyle=orthogonalEdgeStyle;html=1;exitX=0.5;exitY=1;exitDx=0;exitDy=0;entryX=0.25;entryY=1;entryDx=0;entryDy=0;" parent="1" source="168" target="55" edge="1">
                    <mxGeometry relative="1" as="geometry">
                        <mxPoint x="-210" y="930" as="targetPoint"/>
                        <Array as="points">
                            <mxPoint x="-2300" y="860"/>
                            <mxPoint x="555" y="860"/>
                        </Array>
                    </mxGeometry>
                </mxCell>
                <mxCell id="168" value="cup_up_moisture_ light" style="whiteSpace=wrap;html=1;fillColor=#000000;strokeColor=#006EAF;fontColor=#ffffff;rounded=1;" parent="1" vertex="1">
                    <mxGeometry x="-2360" y="780" width="120" height="60" as="geometry"/>
                </mxCell>
                <mxCell id="171" value="cup_up_vvel" style="whiteSpace=wrap;html=1;fillColor=#000000;strokeColor=#006EAF;fontColor=#ffffff;rounded=1;" parent="1" vertex="1">
                    <mxGeometry x="-2520" y="780" width="120" height="60" as="geometry"/>
                </mxCell>
                <mxCell id="176" value="" style="edgeStyle=orthogonalEdgeStyle;html=1;" parent="1" source="172" target="175" edge="1">
                    <mxGeometry relative="1" as="geometry"/>
                </mxCell>
                <mxCell id="177" style="edgeStyle=orthogonalEdgeStyle;html=1;exitX=0.5;exitY=1;exitDx=0;exitDy=0;entryX=0.25;entryY=1;entryDx=0;entryDy=0;" parent="1" source="172" target="55" edge="1">
                    <mxGeometry relative="1" as="geometry">
                        <mxPoint x="-230" y="930" as="targetPoint"/>
                        <Array as="points">
                            <mxPoint x="-2620" y="860"/>
                            <mxPoint x="555" y="860"/>
                        </Array>
                    </mxGeometry>
                </mxCell>
                <mxCell id="172" value="cup_up_moisture" style="whiteSpace=wrap;html=1;fillColor=#000000;strokeColor=#006EAF;fontColor=#ffffff;rounded=1;" parent="1" vertex="1">
                    <mxGeometry x="-2680" y="780" width="120" height="60" as="geometry"/>
                </mxCell>
                <mxCell id="175" value="get_delmix" style="whiteSpace=wrap;html=1;fillColor=#000000;strokeColor=#006EAF;fontColor=#ffffff;rounded=1;" parent="1" vertex="1">
                    <mxGeometry x="-2840" y="780" width="120" height="60" as="geometry"/>
                </mxCell>
                <mxCell id="178" value="get_melting_profile" style="whiteSpace=wrap;html=1;fillColor=#000000;strokeColor=#006EAF;fontColor=#ffffff;rounded=1;" parent="1" vertex="1">
                    <mxGeometry x="-3000" y="780" width="120" height="60" as="geometry"/>
                </mxCell>
                <mxCell id="182" value="get_jmin" style="whiteSpace=wrap;html=1;fillColor=#000000;strokeColor=#006EAF;fontColor=#ffffff;rounded=1;" parent="1" vertex="1">
                    <mxGeometry x="-3160" y="780" width="120" height="60" as="geometry"/>
                </mxCell>
                <mxCell id="183" value="get_lateral_massflux_ down" style="whiteSpace=wrap;html=1;fillColor=#000000;strokeColor=#006EAF;fontColor=#ffffff;rounded=1;" parent="1" vertex="1">
                    <mxGeometry x="-3320" y="780" width="120" height="60" as="geometry"/>
                </mxCell>
                <mxCell id="186" value="get_wetbulb" style="whiteSpace=wrap;html=1;fillColor=#000000;strokeColor=#006EAF;fontColor=#ffffff;rounded=1;" parent="1" vertex="1">
                    <mxGeometry x="-3480" y="780" width="120" height="60" as="geometry"/>
                </mxCell>
                <mxCell id="188" value="cup_dd_moisture" style="whiteSpace=wrap;html=1;fillColor=#000000;strokeColor=#006EAF;fontColor=#ffffff;rounded=1;" parent="1" vertex="1">
                    <mxGeometry x="-3640" y="780" width="120" height="60" as="geometry"/>
                </mxCell>
                <mxCell id="189" value="cup_up_aa0" style="whiteSpace=wrap;html=1;fillColor=#000000;strokeColor=#006EAF;fontColor=#ffffff;rounded=1;" parent="1" vertex="1">
                    <mxGeometry x="-3800" y="780" width="120" height="60" as="geometry"/>
                </mxCell>
                <mxCell id="190" value="cup_up_aa1bl" style="whiteSpace=wrap;html=1;fillColor=#000000;strokeColor=#006EAF;fontColor=#ffffff;rounded=1;" parent="1" vertex="1">
                    <mxGeometry x="-3960" y="780" width="120" height="60" as="geometry"/>
                </mxCell>
                <mxCell id="194" value="cup_dd_edt" style="whiteSpace=wrap;html=1;fillColor=#000000;strokeColor=#006EAF;fontColor=#ffffff;rounded=1;" parent="1" vertex="1">
                    <mxGeometry x="-4120" y="780" width="120" height="60" as="geometry"/>
                </mxCell>
                <mxCell id="195" value="tridiag" style="whiteSpace=wrap;html=1;fillColor=#000000;strokeColor=#006EAF;fontColor=#ffffff;rounded=1;" parent="1" vertex="1">
                    <mxGeometry x="-4280" y="780" width="120" height="60" as="geometry"/>
                </mxCell>
                <mxCell id="198" value="fct1d3" style="whiteSpace=wrap;html=1;fillColor=#000000;strokeColor=#006EAF;fontColor=#ffffff;rounded=1;" parent="1" vertex="1">
                    <mxGeometry x="-4440" y="780" width="120" height="60" as="geometry"/>
                </mxCell>
                <mxCell id="200" value="cup_forcing_ens_3d" style="whiteSpace=wrap;html=1;fillColor=#000000;strokeColor=#006EAF;fontColor=#ffffff;rounded=1;" parent="1" vertex="1">
                    <mxGeometry x="-4600" y="780" width="120" height="60" as="geometry"/>
                </mxCell>
                <mxCell id="201" value="cup_forcing_ens_ 3d_mid" style="whiteSpace=wrap;html=1;fillColor=#000000;strokeColor=#006EAF;fontColor=#ffffff;rounded=1;" parent="1" vertex="1">
                    <mxGeometry x="-4760" y="780" width="120" height="60" as="geometry"/>
                </mxCell>
                <mxCell id="202" value="cup_up_cape" style="whiteSpace=wrap;html=1;fillColor=#000000;strokeColor=#006EAF;fontColor=#ffffff;rounded=1;" parent="1" vertex="1">
                    <mxGeometry x="-4920" y="780" width="120" height="60" as="geometry"/>
                </mxCell>
                <mxCell id="203" value="cup_forcing_ens_ 3d_shal" style="whiteSpace=wrap;html=1;fillColor=#000000;strokeColor=#006EAF;fontColor=#ffffff;rounded=1;" parent="1" vertex="1">
                    <mxGeometry x="-5080" y="780" width="120" height="60" as="geometry"/>
                </mxCell>
                <mxCell id="204" value="ke_to_heating" style="whiteSpace=wrap;html=1;fillColor=#000000;strokeColor=#006EAF;fontColor=#ffffff;rounded=1;" parent="1" vertex="1">
                    <mxGeometry x="-5240" y="780" width="120" height="60" as="geometry"/>
                </mxCell>
                <mxCell id="210" value="cup_output_ens_3d" style="whiteSpace=wrap;html=1;fillColor=#000000;strokeColor=#006EAF;fontColor=#ffffff;rounded=1;" parent="1" vertex="1">
                    <mxGeometry x="-5400" y="780" width="120" height="60" as="geometry"/>
                </mxCell>
                <mxCell id="212" value="get_precip_fluxes" style="whiteSpace=wrap;html=1;fillColor=#000000;strokeColor=#006EAF;fontColor=#ffffff;rounded=1;" parent="1" vertex="1">
                    <mxGeometry x="-5560" y="780" width="120" height="60" as="geometry"/>
                </mxCell>
                <mxCell id="213" value="rain_evap_below_ cloudbase" style="whiteSpace=wrap;html=1;fillColor=#000000;strokeColor=#006EAF;fontColor=#ffffff;rounded=1;" parent="1" vertex="1">
                    <mxGeometry x="-5720" y="780" width="120" height="60" as="geometry"/>
                </mxCell>
                <mxCell id="214" value="cloud_dissipation" style="whiteSpace=wrap;html=1;fillColor=#000000;strokeColor=#006EAF;fontColor=#ffffff;rounded=1;" parent="1" vertex="1">
                    <mxGeometry x="-5880" y="780" width="120" height="60" as="geometry"/>
                </mxCell>
                <mxCell id="215" value="cup_up_lightning" style="whiteSpace=wrap;html=1;fillColor=#000000;strokeColor=#006EAF;fontColor=#ffffff;rounded=1;" parent="1" vertex="1">
                    <mxGeometry x="-6040" y="780" width="120" height="60" as="geometry"/>
                </mxCell>
                <mxCell id="216" value="get_liq_ice_ number_conc" style="whiteSpace=wrap;html=1;fillColor=#000000;strokeColor=#006EAF;fontColor=#ffffff;rounded=1;" parent="1" vertex="1">
                    <mxGeometry x="-6200" y="780" width="120" height="60" as="geometry"/>
                </mxCell>
                <mxCell id="222" value="cup_env_clev_chem" style="whiteSpace=wrap;html=1;fillColor=#000000;strokeColor=#006EAF;fontColor=#ffffff;rounded=1;" parent="1" vertex="1">
                    <mxGeometry x="-6360" y="780" width="120" height="60" as="geometry"/>
                </mxCell>
                <mxCell id="228" style="edgeStyle=orthogonalEdgeStyle;html=1;exitX=0.5;exitY=1;exitDx=0;exitDy=0;entryX=0.25;entryY=1;entryDx=0;entryDy=0;" parent="1" source="223" target="55" edge="1">
                    <mxGeometry relative="1" as="geometry">
                        <Array as="points">
                            <mxPoint x="-6460" y="860"/>
                            <mxPoint x="555" y="860"/>
                        </Array>
                    </mxGeometry>
                </mxCell>
                <mxCell id="223" value="get_incloud_sc_ chem_up" style="whiteSpace=wrap;html=1;fillColor=#000000;strokeColor=#006EAF;fontColor=#ffffff;rounded=1;" parent="1" vertex="1">
                    <mxGeometry x="-6520" y="780" width="120" height="60" as="geometry"/>
                </mxCell>
                <mxCell id="224" value="get_incloud_sc_ chem_dd" style="whiteSpace=wrap;html=1;fillColor=#000000;strokeColor=#006EAF;fontColor=#ffffff;rounded=1;" parent="1" vertex="1">
                    <mxGeometry x="-6680" y="780" width="120" height="60" as="geometry"/>
                </mxCell>
            </root>
        </mxGraphModel>
    </diagram>
</mxfile>